<svg width="24" height="24" viewBox="0 0 24 24" fill="none" xmlns="http://www.w3.org/2000/svg">
<path fill-rule="evenodd" clip-rule="evenodd" d="M12 10.5C13.933 10.5 15.5 8.933 15.5 7C15.5 5.067 13.933 3.5 12 3.5C10.067 3.5 8.5 5.067 8.5 7C8.5 8.933 10.067 10.5 12 10.5ZM12 12C14.7614 12 17 9.76142 17 7C17 4.23858 14.7614 2 12 2C9.23858 2 7 4.23858 7 7C7 9.76142 9.23858 12 12 12Z" fill="black"/>
<path fill-rule="evenodd" clip-rule="evenodd" d="M9 15.75C6.65279 15.75 4.75 17.6528 4.75 20V21C4.75 21.4142 4.41421 21.75 4 21.75C3.58579 21.75 3.25 21.4142 3.25 21V20C3.25 16.8244 5.82436 14.25 9 14.25H15C18.1756 14.25 20.75 16.8244 20.75 20V21C20.75 21.4142 20.4142 21.75 20 21.75C19.5858 21.75 19.25 21.4142 19.25 21V20C19.25 17.6528 17.3472 15.75 15 15.75H9Z" fill="black"/>
</svg>
