<svg xmlns="http://www.w3.org/2000/svg" data-name="Layer 1" width="188.16001" height="227.14558" viewBox="0 0 188.16001 227.14558" xmlns:xlink="http://www.w3.org/1999/xlink"><path d="M573.97638,381.03768l-27.51765-5.69562c11.95578,27.85205-8.73581,64.33409-38.776,68.36723l33.421,15.108-33.216,46.01612c8.37334,4.13466,18.21825,3.13935,27.55633,3.04664s19.75227,1.3533,25.64925,8.59443,2.22844,21.30847-7.10973,21.22521c17.98075,12.14746,46.06976,4.25365,55.09045-15.482,15.71084,2.84846,32.59035-8.90983,35.36334-24.63417s-9.0662-32.54719-24.80367-35.24466c11.89887-.539,24.18785-2.6322,33.97077-9.42691s16.38164-19.26668,13.317-30.77675-17.92312-19.16-27.91525-12.67688l24.115-15.22813C626.69875,392.55505,592.622,384.897,573.97638,381.03768Z" transform="translate(-493.6007 -345.83544)" fill="#ecec18"/><path d="M654.93492,442.16358c-1.10628-1.86139-2.18341-3.7409-3.18617-5.6597,9.56893-9.71871,18.88152-19.9053,25.37086-31.982,2.90778-6.116,5.69682-12.98129,4.24416-19.837-1.88691-7.28461-9.5092-11.30432-16.71145-10.63157-10.56241,1.58823-20.30011,6.66434-30.74,8.9504-10.33274,2.76773-13.19427,2.0783-14.041,1.76338-.065-.03378-.12078-.08294-.18487-.11831-.22256-.35581-.42989-.71843-.61635-1.09483-.03059-.07786-.04959-.12947-.08714-.223-2.07815-7.7248-3.58286-15.594-5.72451-23.30474-1.30636-4.36-2.352-9.04871-5.29578-12.639a4.94668,4.94668,0,0,0-6.94968-.24533c-3.42684,4.44628-2.47513,11.08423-3.53283,15.23936-1.468,11.127-2.94592,22.255-4.28983,33.39666,3.43178-10.128,6.85065-20.6881,10.048-30.972.27461,3.92706.42946,8.18761.877,13.10481.391,10.31114,2.61273,20.02535,13.98824,22.743,11.2082,2.07916,22.55094-.92112,33.57906-2.85718,1.23357-.24315,2.45874-.5282,3.68681-.79817-5.00753,7.24009-5.63548,7.86442-14.38,17.14888-3.777,3.92808-8.08728,7.388-11.174,11.92488-7.28576,12.02594,3.31492,24.33925,8.77236,34.824,4.58764,8.05537,9.72827,15.8154,14.32244,23.86745-1.41293.35247-2.8437.62722-4.28186.86138q-.41387.04176-.82775.08337c-17.48279.43758-24.00983,1.82384-33.89585,17.10583-8.28055,12.31171-14.8405,25.69766-22.66055,38.284-.05365-.14282-.09671-.2562-.15485-.41192-4.32086-10.4786-5.31289-22.06014-10.04044-32.34634-8.04958-13.8505-23.78728-11.4773-36.37563-5.90416-3.9478,1.44657-7.86225,3.04944-11.79773,4.59257q2.88756-3.94018,5.834-7.83571c.69712-.91011,1.12-1.46194,1.35276-1.7657,7.29375-9.263,16.9169-19.70941,12.35232-32.14973-4.8901-15.63461-19.1312-24.20514-31.81293-33.35142,1.79484-1.2404,4.02754-2.06148,9.654-4.94461,8.1808-4.56488,11.85659-14.159,12.37595-23.12264.48166-4.93228-.35508-9.89023.07162-14.816.04944-.22025.11295-.475.19125-.74627l.04146-.06786c.27577-.0158.54952-.059.82587-.05451,11.4567.12324,25.08812,6.19674,38.95051,13.82367q6.23988,3.45738,12.28011,7.26243a182.71083,182.71083,0,0,0-18.15672-17.3439c-10.45946-8.44453-33.85656-25.70549-45.85959-12.86079-4.38292,4.8969-4.88879,11.6465-5.62345,17.911a70.6439,70.6439,0,0,1-1.53444,7.21255c-.49586,1.05915-1.02087,2.107-1.60519,3.119-.01565.02567-.03523.04843-.05118.0738-.22488.24562-.4818.4573-.72408.68566-12.98085,3.8189-30.50975,12.31766-27.49468,28.262,1.4618,6.51427,6.48731,11.46874,11.54733,15.49382,5.51747,4.51268,11.098,8.95881,16.35434,13.77756.98593.90837,1.9188,1.87357,2.81209,2.874a30.52538,30.52538,0,0,1,1.893,3.25765c-1.04146,1.641-2.24227,3.18906-3.39422,4.74843-5.4457,6.99507-10.86616,14.01115-16.00622,21.23573-5.62171,7.64013-11.06233,16.994-8.93909,26.79887,9.24169,27.69462,41.36547,6.75757,59.48173,1.1866.44527-.14006.89532-.26576,1.34247-.4009,3.03305,11.049,5.49078,22.36361,10.99042,32.50047,8.70826,15.20007,24.294,21.64707,37.13146,6.755,12.10075-15.93372,19.79191-34.76783,31.39-51.0617.289-.34987.58851-.689.89343-1.02335,12.6897-.77048,26.93457-1.56459,36.76956-10.49237,6.46614-6.85138,6.05437-17.45714,1.35914-25.17309C673.13063,468.97144,663.75193,456.70757,654.93492,442.16358Z" transform="translate(-493.6007 -345.83544)"/></svg>