<svg xmlns="http://www.w3.org/2000/svg" data-name="Layer 1" width="363.44191" height="306.00328" viewBox="0 0 363.44191 306.00328" xmlns:xlink="http://www.w3.org/1999/xlink"><path d="M781.13774,565.05635c-2.42329-30.82243-5.91765-61.59954-6.17806-92.54677-.37175-13.925,1.00966-31.81117,2.49068-40.27851.88866-7.25984,3.45572-14.23949,4.17369-21.4999-.12814-3.39672-2.23534-6.15276-4.15137-8.80171-3.58823-5.32356-8.17622-10.75053-8.99564-11.8177-8.50035-10.37073-19.1898-18.61124-28.859-27.82623-10.10583-9.228-19.19992-19.45849-28.63632-29.35061-10.06005-10.43548-13.67519-15.45493-21.08859-24.93239-1.82839-2.55625-.79089-.9035-4.33311-5.66966a12.78108,12.78108,0,0,0-6.34-4.8445c-5.97884-1.693-11.90339,1.43755-17.66047,2.78342-11.01726,2.6271-21.99726,5.41293-33.08261,7.743-45.12358,9.94376-84.97132,18.02578-127.34771,21.25905-23.30161,1.26087-46.55537,3.222-69.68145,6.37233-2.7626.39222-5.52312.79825-8.28457,1.20014a3.26916,3.26916,0,0,0-1.7067.66908c-3.49643,2.18127-3.53692,5.86807-2.7879,9.53566.00943.0681.01771.13653.02738.20463,1.90223,8.91558,3.46285,17.88281,4.94617,26.88028,2.07063,10.59594,4.76237,23.61746,5.83368,33.12219.10559.7236.21325,1.48815.32137,2.28088-1.014,9.4318-2.29468,18.83519-3.30067,28.27136-1.27467,16.84451-1.87255,33.73295-3.47136,50.5556q-1.43651,17.94567-1.70577,35.95828c.33563,5.69922-1.75179,12.63493,2.65493,17.15667,2.53417,2.361,5.969,3.30113,9.18612,4.35566,6.35266,1.91948,12.94595,2.87877,19.34784,4.6064,13.88844,3.61629,21.02072,6.88061,34.1537,15.24616,24.31173,16.48057,48.49579,26.22523,75.64051,30.82013.22452,2.16379.4127,4.3308.663,6.4923.17231-1.47366.35473-2.94756.5314-4.42122.0658-.61467.13987-1.22912.2075-1.8438a229.02177,229.02177,0,0,0,24.14449,2.588c13.28918-1.66368,26.66761-1.74374,40.04559-1.82287,12.87072-.20842,25.70786-1.24178,38.55421-1.98321,30.6331-1.0306,61.18454-3.85991,91.84112-4.12952q6.53865-.07108,13.07753-.07108c1.84955-.05889,3.80723.24775,5.52244-.56154,4.07407-1.56177,4.53278-6.41661,4.73844-10.22591A122.0469,122.0469,0,0,0,781.13774,565.05635ZM563.5675,433.72314c-1.31286,9.47424-1.7978,14.02807-2.9563,21.99415-2.14631,15.99219-4.10628,32.0787-4.1187,48.237.17023,12.98851,1.85415,25.90294,2.285,38.88282.47458,13.69429,1.20658,27.38167,2.33518,41.03662-1.06832-.1845-2.1217-.37521-3.13343-.579-19.3437-4.54337-31.93768-8.97724-47.55307-17.52153-13.23672-7.28618-25.23075-16.80241-39.35591-22.433-11.977-5.22775-25.18359-6.41638-37.50636-10.47137-.28433-19.9731.07224-39.95472.03129-59.93023,16.38741,6.21682,33.14542,11.78837,50.62254,13.84473,12.98828,2.08132,26.15346.97032,39.211,1.94606,1.95215-.00748,6.61192,1.01575,2.35634-.61319-9.92249-4.57937-20.885-5.84863-31.5243-7.84058-20.07478-3.6041-40.40813-5.53152-60.66557-7.81321-.00368-1.46929.00713-2.93881-.00138-4.40811-.21808-11.23522-1.04118-22.45228-1.13734-33.69131.06764-5.19174.10306-10.38291.05222-15.57155,1.29423-14.29171.73775-28.73548-.24729-43.02995q-.52175-9.79951-.93306-19.60871c-.05429-2.37486-.19485-4.7473-.31056-7.12032,5.88291-.32379,11.75524-.82045,17.6278-1.30688,33.89375-2.53738,67.88366-3.90442,101.49376-9.31666,17.50428-2.301,34.79576-5.83691,52.0318-9.61285,21.34968-4.13158,57.64118-11.98149,71.9039-15.80079,5.89856,6.733,11.09962,14.10215,17.17784,20.69854,13.66806,14.75709,27.2977,29.62149,42.30162,43.04594,8.95676,7.68093,17.01635,14.92478,23.75043,22.38476-12.45021-1.85243-25.10907-1.5934-37.68373-1.15493-23.91122-.04486-47.83947-.69278-71.73-1.6845-23.776-1.76789-47.5717-2.51507-71.41115-2.40488-1.6876-.04118-3.37842-.06637-5.0651-.15493-8.41639-5.4969-16.39707-11.673-25.04488-16.80391-19.83255-10.38958-47.85351-11.84323-66.06654-14.3131-16.746-2.76466-32.36327-9.85818-49.08033-12.81977,14.31586,5.34116,26.73869,13.05327,41.44954,18.48426,10.02991,3.67794,20.64322,5.16863,30.9922,7.641,10.2411,2.35209,26.76837,7.69129,31.21374,9.88407,9.04878,4.32862,16.63678,11.11031,24.851,16.77595,2.4472,1.63193,4.591,3.81137,7.39223,4.81977a16.29684,16.29684,0,0,0,1.82816.33425A230.47572,230.47572,0,0,0,563.5675,433.72314ZM676.59612,583.04671c-16.21073.57994-32.36833,2.205-48.58665,2.588-13.05821.28227-26.14794-.35311-39.14335,1.3101-3.591-.28594-14.0221-1.012-23.75388-2.43432,2.30274-19.27745,4.79228-38.56709,5.01358-57.98383-.55349-23.18751-.11778-46.37387.05061-69.56413-.0697-16.37487-.75731-32.744.0865-49.10126,1.1861.08914,2.38095.11157,3.56177.14193,13.438.24787,26.88408-.06671,40.31864.37,12.09249.51449,24.16841,1.50126,36.27954,1.48459A536.98064,536.98064,0,0,0,732.598,402.9275a157.30652,157.30652,0,0,1,26.144-2.15171,96.86329,96.86329,0,0,1,8.62205,11.31367c-.39062,2.23994-.79135,4.597-.26294,1.69451-1.45273,12.803-3.89764,22.24294-4.67381,37.96713-1.41384,29.69223.7067,59.45014,3.60065,88.99605,1.11664,10.92571,3.4035,29.14381,3.25834,38.289C738.33255,578.99863,707.51908,582.1615,676.59612,583.04671Z" transform="translate(-418.27905 -296.99836)"/><path d="M492.55846,426.67977a92.19677,92.19677,0,0,0-26.40789-7.884c-11.1309-1.35358-22.3697.34368-33.39915,1.86565,20.29309,2.77675,40.90756,4.286,61.11484,7.114C496.25,428.26742,493.45863,427.17873,492.55846,426.67977Z" transform="translate(-418.27905 -296.99836)"/><path d="M493.72846,346.31127c67.72562,27.99793,141.85962,40.36036,216.6075,43.84043-13.75767-22.566-27.51534-45.132-43.9389-65.70554C617.2554,334.20815,568.11375,343.97014,493.72846,346.31127Z" transform="translate(-418.27905 -296.99836)" fill="#13ff3c"/></svg>